# Blender v2.92.0 OBJ File: 'Credit.blend'
# www.blender.org
mtllib LowPolyFrame.mtl
o Cube_Cube.001
v -0.193428 0.188873 0.811127
v -0.193428 1.811127 0.811127
v -0.193428 0.188873 -0.811127
v -0.193428 1.811127 -0.811127
v 0.173301 0.165417 0.814456
v 0.173301 0.185544 0.834583
v 0.193428 0.145290 0.854710
v 0.173301 1.834583 0.814456
v 0.193428 1.854710 0.854710
v 0.173301 1.814456 0.834583
v 0.173301 0.185544 -0.834583
v 0.173301 0.165417 -0.814456
v 0.193428 0.145290 -0.854710
v 0.173301 1.814456 -0.834583
v 0.193428 1.854710 -0.854710
v 0.173301 1.834583 -0.814456
v 0.173301 2.000000 -0.979873
v 0.193428 1.979873 -0.979873
v 0.173301 1.979873 -1.000000
v 0.173301 0.000000 -0.979873
v 0.173301 0.020127 -1.000000
v 0.193428 0.020127 -0.979873
v 0.193428 0.020127 0.979873
v 0.173301 0.020127 1.000000
v 0.173301 0.000000 0.979873
v 0.173301 2.000000 0.979873
v 0.173301 1.979873 1.000000
v 0.193428 1.979873 0.979873
v 0.122484 1.814456 -0.834583
v 0.122484 1.834583 -0.814456
v 0.102357 1.814456 -0.814456
v 0.122484 0.185544 -0.834583
v 0.102357 0.185544 -0.814456
v 0.122484 0.165417 -0.814456
v 0.122484 0.165417 0.814456
v 0.102357 0.185544 0.814456
v 0.122484 0.185544 0.834583
v 0.122484 1.834583 0.814456
v 0.122484 1.814456 0.834583
v 0.102357 1.814456 0.814456
v -0.193428 0.020127 -0.979873
v -0.173301 0.020127 -1.000000
v -0.173301 0.000000 -0.979873
v -0.173301 0.000000 0.979873
v -0.173301 0.020127 1.000000
v -0.193428 0.020127 0.979873
v -0.173301 1.979873 1.000000
v -0.173301 2.000000 0.979873
v -0.193428 1.979873 0.979873
v -0.173301 2.000000 -0.979873
v -0.173301 1.979873 -1.000000
v -0.193428 1.979873 -0.979873
v -0.281808 0.747393 0.146048
v -0.260788 0.747393 0.166175
v -0.260823 1.059617 0.166175
v -0.261681 1.079744 0.146048
v -0.281808 1.059617 0.146048
v -0.260788 0.747393 -0.166175
v -0.281808 0.747393 -0.146048
v -0.261681 1.079744 -0.146048
v -0.260823 1.059617 -0.166175
v -0.281808 1.059617 -0.146048
v -0.213555 0.747393 0.146048
v -0.193428 0.767520 0.146048
v -0.213555 0.767520 0.166175
v -0.213555 1.079744 0.146048
v -0.213555 1.059617 0.166175
v -0.193428 1.059617 0.146048
v -0.213555 0.767520 -0.166175
v -0.193428 0.767520 -0.146048
v -0.213555 0.747393 -0.146048
v -0.213555 1.079744 -0.146048
v -0.193428 1.059617 -0.146048
v -0.213555 1.059617 -0.166175
v -0.217491 0.747393 -0.146048
v -0.245921 0.729059 -0.146048
v -0.250598 0.767520 -0.166175
v -0.237618 1.059617 -0.166175
v -0.237618 1.079744 -0.146048
v -0.250598 0.767520 0.166175
v -0.245921 0.729059 0.146048
v -0.217491 0.747393 0.146048
v -0.237618 1.059617 0.166175
v -0.237618 1.079744 0.146048
v -0.611986 0.018335 -0.146048
v -0.590113 0.020127 -0.166175
v -0.600162 0.000000 -0.146048
v -0.611986 0.018335 0.146048
v -0.600162 0.000000 0.146048
v -0.590113 0.020127 0.166175
v -0.589079 0.020127 -0.166175
v -0.567796 0.018335 -0.146048
v -0.596227 0.000000 -0.146048
v -0.589079 0.020127 0.166175
v -0.596227 0.000000 0.146048
v -0.567796 0.018335 0.146048
vt 0.398609 0.023609
vt 0.601391 0.023609
vt 0.601391 0.226391
vt 0.398609 0.226391
vt 0.138007 0.502516
vt 0.361993 0.502516
vt 0.361993 0.747484
vt 0.138007 0.747484
vt 0.604323 0.523193
vt 0.604323 0.726807
vt 0.604323 0.726807
vt 0.604323 0.523193
vt 0.377516 0.763007
vt 0.622484 0.763007
vt 0.622484 0.986993
vt 0.377516 0.986993
vt 0.377516 0.263007
vt 0.622484 0.263007
vt 0.622484 0.486993
vt 0.377516 0.486993
vt 0.638007 0.502516
vt 0.861993 0.502516
vt 0.861993 0.747484
vt 0.638007 0.747484
vt 0.601807 0.729323
vt 0.398193 0.729323
vt 0.398193 0.729323
vt 0.601807 0.729323
vt 0.398193 0.520677
vt 0.601807 0.520677
vt 0.601807 0.520677
vt 0.398193 0.520677
vt 0.927355 0.072645
vt 0.072645 0.072645
vt 0.010064 0.010064
vt 0.989936 0.010064
vt 0.377516 0.247484
vt 0.377516 0.002516
vt 0.072645 0.927355
vt 0.010064 0.989936
vt 0.927355 0.927355
vt 0.989936 0.989936
vt 0.622484 0.247484
vt 0.622484 0.002516
vt 0.395677 0.726807
vt 0.395677 0.729323
vt 0.395677 0.729323
vt 0.604323 0.729323
vt 0.604323 0.729323
vt 0.395677 0.520677
vt 0.395677 0.523193
vt 0.395677 0.520677
vt 0.604323 0.520677
vt 0.604323 0.520677
vt 0.625000 0.502516
vt 0.638007 0.500000
vt 0.375000 0.486993
vt 0.377516 0.500000
vt 0.377516 0.500000
vt 0.377516 0.750000
vt 0.377516 0.750000
vt 0.375000 0.763007
vt 0.638007 0.750000
vt 0.625000 0.747484
vt 0.604323 0.520677
vt 0.601807 0.520677
vt 0.398193 0.520677
vt 0.395677 0.520677
vt 0.395677 0.726807
vt 0.395677 0.726807
vt 0.395677 0.729323
vt 0.604323 0.729323
vt 0.601807 0.729323
vt 0.376258 0.248742
vt 0.375000 0.247484
vt 0.375000 0.002516
vt 0.376258 0.001258
vt 0.622484 0.000000
vt 0.623742 0.001258
vt 0.625000 0.247484
vt 0.622484 0.250000
vt 0.377516 0.000000
vt 0.625000 0.002516
vt 0.375000 0.263007
vt 0.625000 0.263007
vt 0.625000 0.486993
vt 0.622484 0.500000
vt 0.375000 0.502516
vt 0.375000 0.747484
vt 0.622484 0.750000
vt 0.375000 0.986993
vt 0.625000 0.763007
vt 0.625000 0.986993
vt 0.395677 0.523193
vt 0.395677 0.523193
vt 0.604323 0.726807
vt 0.604323 0.523193
vt 0.398193 0.729323
vt 0.907228 0.092772
vt 0.907228 0.907227
vt 0.092772 0.907227
vt 0.092772 0.092772
vt 0.375000 0.015140
vt 0.375000 0.234860
vt 0.375000 0.234860
vt 0.375000 0.015140
vt 0.390140 0.911716
vt 0.609860 0.875000
vt 0.609860 0.940639
vt 0.375000 0.940542
vt 0.250000 0.515140
vt 0.250000 0.734860
vt 0.250000 0.734860
vt 0.250000 0.515140
vt 0.390140 0.806934
vt 0.609860 0.806934
vt 0.375000 0.937500
vt 0.375000 0.940425
vt 0.375000 0.937500
vt 0.390140 0.515140
vt 0.609860 0.515140
vt 0.609860 0.734860
vt 0.390140 0.734860
vt 0.375000 0.309458
vt 0.609860 0.309361
vt 0.609860 0.375000
vt 0.390140 0.338284
vt 0.609860 0.443067
vt 0.390140 0.443067
vt 0.181934 0.515140
vt 0.193066 0.515140
vt 0.193066 0.734860
vt 0.181934 0.734860
vt 0.681933 0.515140
vt 0.750000 0.515140
vt 0.750000 0.734860
vt 0.681934 0.734860
vt 0.375000 0.312500
vt 0.375000 0.312500
vt 0.375000 0.309575
vt 0.306933 0.515140
vt 0.318067 0.515140
vt 0.318067 0.734860
vt 0.306934 0.734860
vt 0.609860 0.015140
vt 0.609860 0.234860
vt 0.818066 0.515140
vt 0.818067 0.734860
vt 0.625000 0.943067
vt 0.609860 1.000000
vt 0.625000 0.306933
vt 0.625000 0.309361
vt 0.609860 0.250000
vt 0.375000 0.734860
vt 0.318067 0.750000
vt 0.625000 0.806934
vt 0.625000 0.806934
vt 0.609860 0.750000
vt 0.390140 0.500000
vt 0.375000 0.443067
vt 0.625000 0.515140
vt 0.625000 0.515140
vt 0.609860 0.500000
vt 0.375000 0.431933
vt 0.375000 0.375000
vt 0.375000 0.338284
vt 0.375000 0.875000
vt 0.375000 0.875000
vt 0.148488 0.515140
vt 0.210359 0.500000
vt 0.181934 0.500000
vt 0.148488 0.734860
vt 0.181934 0.750000
vt 0.210359 0.750000
vt 0.375000 0.375000
vt 0.375000 0.318066
vt 0.213284 0.750000
vt 0.193066 0.750000
vt 0.375000 0.000000
vt 0.609860 0.000000
vt 0.625000 0.015140
vt 0.625000 0.234860
vt 0.625000 0.375000
vt 0.625000 0.443066
vt 0.250000 0.750000
vt 0.625000 0.875000
vt 0.250000 0.500000
vt 0.318066 0.500000
vt 0.125000 0.734860
vt 0.125000 0.515140
vt 0.213284 0.500000
vt 0.375000 0.875000
vt 0.375000 0.000000
vn -1.0000 0.0000 0.0000
vn 0.0000 -1.0000 0.0000
vn 0.0000 0.0000 1.0000
vn 0.0000 0.0000 -1.0000
vn 0.0000 1.0000 0.0000
vn 1.0000 -0.0000 0.0000
vn 0.9045 0.3015 -0.3015
vn 0.9045 -0.3015 -0.3015
vn 0.9045 0.3015 0.3015
vn 0.9045 -0.3015 0.3015
vn 0.5774 0.5774 -0.5773
vn 0.5774 -0.5773 -0.5773
vn 0.5774 -0.5773 0.5773
vn 0.5774 0.5774 0.5773
vn 0.5774 -0.5773 0.5774
vn 0.5774 0.5773 0.5773
vn 0.5774 0.5773 -0.5773
vn 0.5774 -0.5773 -0.5774
vn -0.5774 -0.5773 -0.5773
vn -0.5774 -0.5773 0.5773
vn -0.5774 0.5774 0.5773
vn -0.5774 0.5774 -0.5773
vn -0.7071 -0.7071 0.0000
vn -0.7071 0.0000 0.7071
vn -0.7071 0.7071 0.0000
vn -0.7071 0.0000 -0.7071
vn 0.0000 -0.7071 -0.7071
vn 0.0000 0.7071 -0.7071
vn 0.7071 0.0000 -0.7071
vn 0.7071 -0.7071 0.0000
vn 0.7071 0.7071 0.0000
vn 0.7071 0.0000 0.7071
vn 0.0000 -0.7071 0.7071
vn 0.0000 0.7071 0.7071
vn -0.9109 0.4125 0.0000
vn 0.9109 -0.4125 0.0000
vn -0.5691 0.5691 0.5934
vn -0.5691 0.5691 -0.5934
vn 0.5773 -0.5773 0.5774
vn 0.5773 0.5774 0.5774
vn 0.5773 -0.5773 -0.5774
vn 0.5773 0.5774 -0.5774
vn 0.2710 -0.4202 -0.8660
vn 0.2710 -0.4202 0.8660
vn -0.6058 -0.3907 -0.6931
vn -0.6058 -0.3907 0.6931
vn 0.4548 -0.7053 -0.5438
vn 0.4548 -0.7053 0.5438
vn -0.6919 -0.0000 0.7220
vn -0.6919 -0.0000 -0.7220
vn 0.5420 -0.8404 0.0000
vn -0.8404 -0.5420 0.0000
vn 0.6441 -0.2917 0.7071
vn 0.6441 -0.2917 -0.7071
vn -0.6597 0.2987 -0.6896
vn -0.6597 0.2987 0.6896
usemtl B
s off
f 1/1/1 2/2/1 4/3/1 3/4/1
f 43/5/2 20/6/2 25/7/2 44/8/2
f 16/9/2 8/10/2 38/11/2 30/12/2
f 24/13/3 27/14/3 47/15/3 45/16/3
f 42/17/4 51/18/4 19/19/4 21/20/4
f 17/21/5 50/22/5 48/23/5 26/24/5
f 10/25/4 6/26/4 37/27/4 39/28/4
f 11/29/3 14/30/3 29/31/3 32/32/3
f 13/33/6 7/34/6 23/35/6 22/36/6
f 1/1/1 3/4/1 41/37/1 46/38/1
f 7/34/6 9/39/6 28/40/6 23/35/6
f 9/39/6 15/41/6 18/42/6 28/40/6
f 15/41/6 13/33/6 22/36/6 18/42/6
f 3/4/1 4/3/1 52/43/1 41/37/1
f 4/3/1 2/2/1 49/44/1 52/43/1
f 2/2/1 1/1/1 46/38/1 49/44/1
f 5/45/7 6/46/7 7/47/7
f 8/48/8 9/49/8 10/25/8
f 11/50/9 12/51/9 13/52/9
f 14/30/10 15/53/10 16/54/10
f 17/21/11 18/55/11 19/56/11
f 20/57/12 21/58/12 22/59/12
f 23/60/13 24/61/13 25/62/13
f 26/24/14 27/63/14 28/64/14
f 29/31/15 30/65/15 31/66/15
f 32/32/16 33/67/16 34/68/16
f 35/69/17 36/70/17 37/71/17
f 38/72/18 39/28/18 40/73/18
f 41/37/19 42/74/19 43/75/19
f 44/76/20 45/77/20 46/38/20
f 47/78/21 48/79/21 49/44/21
f 50/80/22 51/81/22 52/43/22
f 43/75/23 44/76/23 46/38/23 41/37/23
f 45/82/24 47/78/24 49/44/24 46/38/24
f 48/83/25 50/80/25 52/43/25 49/44/25
f 51/18/26 42/17/26 41/37/26 52/43/26
f 20/57/27 43/84/27 42/17/27 21/20/27
f 50/85/28 17/86/28 19/19/28 51/18/28
f 18/87/29 22/59/29 21/20/29 19/19/29
f 25/7/30 20/6/30 22/88/30 23/89/30
f 17/21/31 26/24/31 28/64/31 18/55/31
f 27/14/32 24/13/32 23/60/32 28/90/32
f 44/91/33 25/62/33 24/13/33 45/16/33
f 26/92/34 48/93/34 47/15/34 27/14/34
f 14/30/32 11/29/32 13/52/32 15/53/32
f 7/47/31 13/52/31 12/51/31 5/45/31
f 15/53/30 9/49/30 8/10/30 16/9/30
f 9/49/29 7/47/29 6/26/29 10/25/29
f 31/66/32 33/67/32 32/32/32 29/31/32
f 35/69/31 34/94/31 33/95/31 36/70/31
f 30/12/30 38/11/30 40/96/30 31/97/30
f 39/28/29 37/27/29 36/98/29 40/73/29
f 5/45/28 35/69/28 37/27/28 6/26/28
f 38/11/27 8/10/27 10/25/27 39/28/27
f 11/29/34 32/32/34 34/94/34 12/51/34
f 29/31/33 14/30/33 16/9/33 30/12/33
f 5/45/5 12/51/5 34/94/5 35/69/5
usemtl Photo
f 33/99/6 31/100/6 40/101/6 36/102/6
usemtl Back
f 53/103/35 59/104/35 85/105/35 88/106/35
f 80/107/3 83/108/3 55/109/3 54/110/3
f 76/111/36 81/112/36 96/113/36 92/114/36
f 65/115/3 67/116/3 83/108/3 80/107/3
f 80/117/3 54/110/3 90/118/3 94/119/3
f 70/120/6 73/121/6 68/122/6 64/123/6
f 58/124/4 61/125/4 78/126/4 77/127/4
f 77/127/4 78/126/4 74/128/4 69/129/4
f 87/130/2 93/131/2 95/132/2 89/133/2
f 72/134/5 79/135/5 84/136/5 66/137/5
f 58/124/4 77/138/4 91/139/4 86/140/4
f 75/141/2 71/142/2 63/143/2 82/144/2
f 53/103/1 57/145/1 62/146/1 59/104/1
f 79/135/5 60/147/5 56/148/5 84/136/5
f 55/109/37 56/149/37 57/150/37
f 60/151/38 61/152/38 62/153/38
f 63/143/39 64/154/39 65/155/39
f 66/156/40 67/157/40 68/158/40
f 69/129/41 70/159/41 71/160/41
f 72/161/42 73/162/42 74/163/42
f 75/164/43 76/165/43 77/166/43
f 80/117/44 81/167/44 82/168/44
f 85/169/45 86/170/45 87/171/45
f 88/172/46 89/173/46 90/174/46
f 91/139/47 92/175/47 93/176/47
f 94/177/48 95/178/48 96/113/48
f 54/179/49 55/180/49 57/145/49 53/103/49
f 56/181/25 60/182/25 62/146/25 57/145/25
f 61/125/50 58/124/50 59/104/50 62/146/50
f 79/183/28 72/184/28 74/128/28 78/126/28
f 73/121/29 70/120/29 69/129/29 74/128/29
f 63/143/30 71/142/30 70/120/30 64/123/30
f 72/134/31 66/137/31 68/122/31 73/121/31
f 67/116/32 65/115/32 64/123/32 68/122/32
f 82/144/33 63/143/33 65/155/33 80/185/33
f 84/186/34 56/149/34 55/109/34 83/108/34
f 71/142/27 75/141/27 77/187/27 69/188/27
f 60/151/28 79/183/28 78/126/28 61/125/28
f 66/156/34 84/186/34 83/108/34 67/116/34
f 75/141/51 82/144/51 81/112/51 76/111/51
f 87/130/52 89/133/52 88/189/52 85/190/52
f 93/131/27 87/130/27 86/170/27 91/191/27
f 89/133/33 95/132/33 94/177/33 90/174/33
f 92/114/51 96/113/51 95/132/51 93/131/51
f 80/117/53 94/119/53 96/192/53 81/167/53
f 91/139/54 77/138/54 76/165/54 92/175/54
f 85/105/55 59/104/55 58/124/55 86/140/55
f 90/193/56 54/179/56 53/103/56 88/106/56
o Cylinder
v -0.193428 1.000000 -3.369036
v -0.193428 1.148608 -3.354400
v -0.193428 1.291506 -3.311052
v -0.193428 1.423201 -3.240660
v -0.193428 1.538633 -3.145927
v -0.193428 1.633365 -3.030496
v -0.193428 1.703757 -2.898801
v -0.193428 1.747105 -2.755903
v -0.193428 1.761742 -2.607295
v -0.193428 1.747105 -2.458687
v -0.193428 1.703757 -2.315789
v -0.193428 1.633365 -2.184094
v -0.193428 1.538633 -2.068663
v -0.193428 1.423201 -1.973930
v -0.193428 1.291506 -1.903538
v -0.193428 1.148608 -1.860190
v -0.193428 1.000000 -1.845554
v -0.193428 0.851391 -1.860190
v -0.193428 0.708494 -1.903538
v -0.193428 0.576799 -1.973930
v -0.193428 0.461367 -2.068663
v -0.193428 0.366635 -2.184095
v -0.193428 0.296243 -2.315790
v -0.193428 0.252895 -2.458687
v -0.193428 0.238259 -2.607296
v -0.193428 0.252895 -2.755904
v -0.193428 0.296243 -2.898802
v -0.193428 0.366636 -3.030497
v -0.193428 0.461368 -3.145928
v -0.193428 0.576800 -3.240660
v -0.193428 0.708495 -3.311053
v -0.193428 0.851393 -3.354400
v 0.173301 1.000000 -3.428977
v 0.193428 1.000000 -3.449201
v 0.193428 1.164248 -3.433024
v 0.173301 1.160302 -3.413188
v 0.193428 1.322183 -3.385115
v 0.173301 1.314444 -3.366430
v 0.193428 1.467738 -3.307314
v 0.173301 1.456502 -3.290498
v 0.193428 1.595317 -3.202613
v 0.173301 1.581017 -3.188312
v 0.193428 1.700019 -3.075033
v 0.173301 1.683203 -3.063797
v 0.193428 1.777820 -2.929479
v 0.173301 1.759135 -2.921739
v 0.193428 1.825729 -2.771543
v 0.173301 1.805893 -2.767597
v 0.193428 1.841906 -2.607295
v 0.173301 1.821681 -2.607295
v 0.193428 1.825729 -2.443047
v 0.173301 1.805893 -2.446993
v 0.193428 1.777820 -2.285112
v 0.173301 1.759135 -2.292851
v 0.193428 1.700019 -2.139557
v 0.173301 1.683203 -2.150793
v 0.193428 1.595317 -2.011977
v 0.173301 1.581017 -2.026278
v 0.193428 1.467738 -1.907276
v 0.173301 1.456502 -1.924092
v 0.193428 1.322183 -1.829475
v 0.173301 1.314444 -1.848160
v 0.193428 1.164248 -1.781566
v 0.173301 1.160302 -1.801402
v 0.193428 1.000000 -1.765389
v 0.173301 1.000000 -1.785613
v 0.193428 0.835752 -1.781566
v 0.173301 0.839697 -1.801402
v 0.193428 0.677816 -1.829475
v 0.173301 0.685556 -1.848160
v 0.193428 0.532261 -1.907276
v 0.173301 0.543498 -1.924092
v 0.193428 0.404682 -2.011978
v 0.173301 0.418983 -2.026279
v 0.193428 0.299980 -2.139558
v 0.173301 0.316796 -2.150794
v 0.193428 0.222180 -2.285112
v 0.173301 0.240865 -2.292852
v 0.193428 0.174271 -2.443048
v 0.173301 0.194107 -2.446994
v 0.193428 0.158094 -2.607296
v 0.173301 0.178318 -2.607296
v 0.193428 0.174271 -2.771544
v 0.173301 0.194107 -2.767598
v 0.193428 0.222180 -2.929479
v 0.173301 0.240865 -2.921740
v 0.193428 0.299981 -3.075034
v 0.173301 0.316797 -3.063798
v 0.193428 0.404683 -3.202613
v 0.173301 0.418984 -3.188313
v 0.193428 0.532263 -3.307315
v 0.173301 0.543499 -3.290499
v 0.193428 0.677818 -3.385115
v 0.173301 0.685557 -3.366430
v 0.193428 0.835754 -3.433024
v 0.173301 0.839699 -3.413188
v 0.193428 1.000000 -3.587070
v 0.173301 1.000000 -3.607295
v 0.173301 1.195090 -3.588080
v 0.193428 1.191145 -3.568244
v 0.173301 1.382683 -3.531175
v 0.193428 1.374944 -3.512490
v 0.173301 1.555570 -3.438765
v 0.193428 1.544334 -3.421949
v 0.173301 1.707107 -3.314402
v 0.193428 1.692806 -3.300101
v 0.173301 1.831470 -3.162865
v 0.193428 1.814654 -3.151629
v 0.173301 1.923879 -2.989979
v 0.193428 1.905195 -2.982239
v 0.173301 1.980785 -2.802385
v 0.193428 1.960949 -2.798440
v 0.173301 2.000000 -2.607295
v 0.193428 1.979775 -2.607295
v 0.173301 1.980785 -2.412205
v 0.193428 1.960949 -2.416150
v 0.173301 1.923880 -2.224612
v 0.193428 1.905195 -2.232351
v 0.173301 1.831470 -2.051725
v 0.193428 1.814654 -2.062961
v 0.173301 1.707107 -1.900188
v 0.193428 1.692806 -1.914489
v 0.173301 1.555570 -1.775825
v 0.193428 1.544334 -1.792641
v 0.173301 1.382683 -1.683415
v 0.193428 1.374944 -1.702100
v 0.173301 1.195090 -1.626510
v 0.193428 1.191144 -1.646346
v 0.173301 1.000000 -1.607295
v 0.193428 1.000000 -1.627519
v 0.173301 0.804909 -1.626510
v 0.193428 0.808855 -1.646346
v 0.173301 0.617316 -1.683416
v 0.193428 0.625056 -1.702101
v 0.173301 0.444429 -1.775826
v 0.193428 0.455665 -1.792642
v 0.173301 0.292893 -1.900189
v 0.193428 0.307194 -1.914490
v 0.173301 0.168530 -2.051725
v 0.193428 0.185346 -2.062962
v 0.173301 0.076120 -2.224612
v 0.193428 0.094805 -2.232352
v 0.173301 0.019215 -2.412206
v 0.193428 0.039050 -2.416151
v 0.173301 0.000000 -2.607296
v 0.193428 0.020224 -2.607296
v 0.173301 0.019215 -2.802386
v 0.193428 0.039051 -2.798441
v 0.173301 0.076121 -2.989980
v 0.193428 0.094806 -2.982240
v 0.173301 0.168531 -3.162866
v 0.193428 0.185347 -3.151630
v 0.173301 0.292894 -3.314403
v 0.193428 0.307195 -3.300102
v 0.173301 0.444431 -3.438766
v 0.193428 0.455667 -3.421949
v 0.173301 0.617318 -3.531175
v 0.193428 0.625057 -3.512490
v 0.173301 0.804911 -3.588081
v 0.193428 0.808857 -3.568245
v 0.105101 1.000000 -3.408752
v 0.125228 1.000000 -3.428977
v 0.125228 1.160302 -3.413188
v 0.105101 1.156357 -3.393352
v 0.125228 1.314444 -3.366430
v 0.105101 1.306704 -3.347745
v 0.125228 1.456502 -3.290498
v 0.105101 1.445266 -3.273682
v 0.125228 1.581017 -3.188312
v 0.105101 1.566716 -3.174011
v 0.125228 1.683203 -3.063797
v 0.105101 1.666387 -3.052561
v 0.125228 1.759135 -2.921739
v 0.105101 1.740450 -2.913999
v 0.125228 1.805893 -2.767597
v 0.105101 1.786057 -2.763652
v 0.125228 1.821681 -2.607295
v 0.105101 1.801457 -2.607295
v 0.125228 1.805893 -2.446993
v 0.105101 1.786057 -2.450938
v 0.125228 1.759135 -2.292851
v 0.105101 1.740450 -2.300591
v 0.125228 1.683203 -2.150793
v 0.105101 1.666387 -2.162029
v 0.125228 1.581017 -2.026278
v 0.105101 1.566716 -2.040579
v 0.125228 1.456502 -1.924092
v 0.105101 1.445266 -1.940908
v 0.125228 1.314444 -1.848160
v 0.105101 1.306704 -1.866845
v 0.125228 1.160302 -1.801402
v 0.105101 1.156356 -1.821238
v 0.125228 1.000000 -1.785613
v 0.105101 1.000000 -1.805838
v 0.125228 0.839697 -1.801402
v 0.105101 0.843643 -1.821238
v 0.125228 0.685556 -1.848160
v 0.105101 0.693295 -1.866845
v 0.125228 0.543498 -1.924092
v 0.105101 0.554734 -1.940908
v 0.125228 0.418983 -2.026279
v 0.105101 0.433284 -2.040579
v 0.125228 0.316796 -2.150794
v 0.105101 0.333612 -2.162030
v 0.125228 0.240865 -2.292852
v 0.105101 0.259550 -2.300591
v 0.125228 0.194107 -2.446994
v 0.105101 0.213942 -2.450939
v 0.125228 0.178318 -2.607296
v 0.105101 0.198543 -2.607296
v 0.125228 0.194107 -2.767598
v 0.105101 0.213943 -2.763652
v 0.125228 0.240865 -2.921740
v 0.105101 0.259550 -2.914000
v 0.125228 0.316797 -3.063798
v 0.105101 0.333613 -3.052562
v 0.125228 0.418984 -3.188313
v 0.105101 0.433285 -3.174011
v 0.125228 0.543499 -3.290499
v 0.105101 0.554735 -3.273683
v 0.125228 0.685557 -3.366430
v 0.105101 0.693297 -3.347745
v 0.125228 0.839699 -3.413188
v 0.105101 0.843644 -3.393353
v -0.193428 1.191145 -3.568244
v -0.173301 1.195090 -3.588080
v -0.173301 1.000000 -3.607295
v -0.193428 1.000000 -3.587070
v -0.193428 1.374944 -3.512490
v -0.173301 1.382684 -3.531175
v -0.193428 1.544334 -3.421949
v -0.173301 1.555570 -3.438765
v -0.193428 1.692806 -3.300101
v -0.173301 1.707107 -3.314402
v -0.193428 1.814654 -3.151629
v -0.173301 1.831470 -3.162865
v -0.193428 1.905195 -2.982239
v -0.173301 1.923880 -2.989979
v -0.193428 1.960949 -2.798440
v -0.173301 1.980785 -2.802385
v -0.193428 1.979776 -2.607295
v -0.173301 2.000000 -2.607295
v -0.193428 1.960949 -2.416150
v -0.173301 1.980785 -2.412205
v -0.193428 1.905195 -2.232351
v -0.173301 1.923880 -2.224612
v -0.193428 1.814654 -2.062961
v -0.173301 1.831470 -2.051725
v -0.193428 1.692806 -1.914489
v -0.173301 1.707107 -1.900188
v -0.193428 1.544334 -1.792641
v -0.173301 1.555570 -1.775825
v -0.193428 1.374944 -1.702100
v -0.173301 1.382683 -1.683415
v -0.193428 1.191145 -1.646346
v -0.173301 1.195090 -1.626510
v -0.193428 1.000000 -1.627519
v -0.173301 1.000000 -1.607295
v -0.193428 0.808855 -1.646346
v -0.173301 0.804909 -1.626510
v -0.193428 0.625056 -1.702101
v -0.173301 0.617316 -1.683416
v -0.193428 0.455665 -1.792642
v -0.173301 0.444429 -1.775826
v -0.193428 0.307194 -1.914490
v -0.173301 0.292893 -1.900189
v -0.193428 0.185346 -2.062962
v -0.173301 0.168530 -2.051725
v -0.193428 0.094805 -2.232352
v -0.173301 0.076120 -2.224612
v -0.193428 0.039051 -2.416151
v -0.173301 0.019215 -2.412206
v -0.193428 0.020225 -2.607296
v -0.173301 0.000000 -2.607296
v -0.193428 0.039051 -2.798441
v -0.173301 0.019215 -2.802386
v -0.193428 0.094806 -2.982240
v -0.173301 0.076121 -2.989980
v -0.193428 0.185347 -3.151630
v -0.173301 0.168531 -3.162866
v -0.193428 0.307195 -3.300102
v -0.173301 0.292894 -3.314403
v -0.193428 0.455667 -3.421949
v -0.173301 0.444431 -3.438766
v -0.193428 0.625058 -3.512490
v -0.173301 0.617318 -3.531175
v -0.193428 0.808857 -3.568245
v -0.173301 0.804911 -3.588081
v -0.281808 0.747393 -2.484688
v -0.260788 0.747393 -2.464561
v -0.260823 1.059617 -2.464561
v -0.261681 1.079744 -2.484688
v -0.281808 1.059617 -2.484688
v -0.260788 0.747393 -2.796911
v -0.281808 0.747393 -2.776784
v -0.261681 1.079744 -2.776784
v -0.260823 1.059617 -2.796911
v -0.281808 1.059617 -2.776784
v -0.213555 0.747393 -2.484688
v -0.193428 0.767520 -2.484688
v -0.213555 0.767520 -2.464561
v -0.213555 1.079744 -2.484688
v -0.213555 1.059617 -2.464561
v -0.193428 1.059617 -2.484688
v -0.213555 0.767520 -2.796911
v -0.193428 0.767520 -2.776784
v -0.213555 0.747393 -2.776784
v -0.213555 1.079744 -2.776784
v -0.193428 1.059617 -2.776784
v -0.213555 1.059617 -2.796911
v -0.217491 0.747393 -2.776784
v -0.245921 0.729059 -2.776784
v -0.250598 0.767520 -2.796911
v -0.237618 1.059617 -2.796911
v -0.237618 1.079744 -2.776784
v -0.250598 0.767520 -2.464561
v -0.245921 0.729059 -2.484688
v -0.217491 0.747393 -2.484688
v -0.237618 1.059617 -2.464561
v -0.237618 1.079744 -2.484688
v -0.611986 0.018334 -2.776784
v -0.590114 0.020127 -2.796911
v -0.600162 -0.000000 -2.776784
v -0.611986 0.018334 -2.484688
v -0.600162 -0.000000 -2.484688
v -0.590114 0.020127 -2.464561
v -0.589079 0.020127 -2.796911
v -0.567796 0.018334 -2.776784
v -0.596227 -0.000000 -2.776784
v -0.589079 0.020127 -2.464561
v -0.596227 -0.000000 -2.484688
v -0.567796 0.018334 -2.484688
vt 0.031250 0.526014
vt 0.031250 0.973986
vt 0.000000 0.973986
vt 0.000000 0.526014
vt 0.937500 0.526014
vt 0.937500 0.973986
vt 0.906250 0.973986
vt 0.906250 0.526014
vt 0.875000 0.973986
vt 0.875000 0.526014
vt 0.843750 0.973986
vt 0.843750 0.526014
vt 0.812500 0.973986
vt 0.812500 0.526014
vt 0.781250 0.973986
vt 0.781250 0.526014
vt 0.750000 0.973986
vt 0.750000 0.526014
vt 0.718750 0.973986
vt 0.718750 0.526014
vt 0.687500 0.973986
vt 0.687500 0.526014
vt 0.656250 0.973986
vt 0.656250 0.526014
vt 0.625000 0.973986
vt 0.625000 0.526014
vt 0.593750 0.973986
vt 0.593750 0.526014
vt 0.562500 0.973986
vt 0.562500 0.526014
vt 0.531250 0.973986
vt 0.531250 0.526014
vt 0.500000 0.973986
vt 0.500000 0.526014
vt 0.468750 0.973986
vt 0.468750 0.526014
vt 0.437500 0.973986
vt 0.437500 0.526014
vt 0.406250 0.973986
vt 0.406250 0.526014
vt 0.375000 0.973986
vt 0.375000 0.526014
vt 0.343750 0.973986
vt 0.343750 0.526014
vt 0.312500 0.973986
vt 0.312500 0.526014
vt 0.281250 0.973986
vt 0.281250 0.526014
vt 0.250000 0.973986
vt 0.250000 0.526014
vt 0.218750 0.973986
vt 0.218750 0.526014
vt 0.218750 0.526014
vt 0.218750 0.973986
vt 0.187500 0.973986
vt 0.187500 0.526014
vt 0.156250 0.973986
vt 0.156250 0.526014
vt 0.125000 0.973986
vt 0.125000 0.526014
vt 0.093750 0.973986
vt 0.093750 0.526014
vt 0.093750 0.526014
vt 0.093750 0.973986
vt 0.062500 0.973986
vt 0.062500 0.526014
vt 0.285666 0.429305
vt 0.250000 0.432818
vt 0.214334 0.429305
vt 0.180039 0.418902
vt 0.148432 0.402008
vt 0.120728 0.379272
vt 0.097993 0.351568
vt 0.081098 0.319962
vt 0.070695 0.285666
vt 0.067182 0.250000
vt 0.070695 0.214334
vt 0.081098 0.180039
vt 0.097992 0.148432
vt 0.120728 0.120728
vt 0.148432 0.097993
vt 0.180039 0.081098
vt 0.214334 0.070695
vt 0.250000 0.067182
vt 0.285666 0.070695
vt 0.319961 0.081098
vt 0.351568 0.097992
vt 0.379272 0.120728
vt 0.402008 0.148432
vt 0.418902 0.180039
vt 0.429305 0.214334
vt 0.432818 0.250000
vt 0.429305 0.285666
vt 0.418902 0.319961
vt 0.402008 0.351568
vt 0.379272 0.379272
vt 0.351568 0.402008
vt 0.319961 0.418902
vt 0.968750 0.526014
vt 0.968750 0.973986
vt 0.548643 0.250000
vt 0.552512 0.289283
vt 0.552512 0.289283
vt 0.548643 0.250000
vt 0.710718 0.447488
vt 0.750000 0.451357
vt 0.750000 0.451357
vt 0.710718 0.447488
vt 0.827056 0.436029
vt 0.861868 0.417422
vt 0.861868 0.417422
vt 0.827056 0.436029
vt 0.892381 0.392381
vt 0.892381 0.392381
vt 0.917422 0.361868
vt 0.917422 0.361868
vt 0.936029 0.327056
vt 0.936029 0.327056
vt 0.947487 0.289283
vt 0.947487 0.289283
vt 0.951356 0.250000
vt 0.951356 0.250000
vt 0.947488 0.210717
vt 0.947488 0.210717
vt 0.936029 0.172944
vt 0.936029 0.172944
vt 0.917422 0.138132
vt 0.917422 0.138132
vt 0.892380 0.107619
vt 0.892380 0.107619
vt 0.861868 0.082578
vt 0.861868 0.082578
vt 0.827056 0.063971
vt 0.827056 0.063971
vt 0.789282 0.052512
vt 0.789282 0.052512
vt 0.750000 0.048643
vt 0.750000 0.048643
vt 0.710717 0.052512
vt 0.710717 0.052512
vt 0.672944 0.063971
vt 0.672944 0.063971
vt 0.638132 0.082578
vt 0.638132 0.082578
vt 0.607619 0.107619
vt 0.607619 0.107619
vt 0.582578 0.138132
vt 0.582578 0.138132
vt 0.563970 0.172944
vt 0.563970 0.172944
vt 0.552512 0.210717
vt 0.552512 0.210717
vt 0.500000 0.079047
vt 0.417876 0.087135
vt 0.404428 0.019525
vt 0.500000 0.010112
vt 0.563971 0.327056
vt 0.563971 0.327056
vt 0.582578 0.361868
vt 0.582578 0.361868
vt 0.607619 0.392381
vt 0.607619 0.392381
vt 0.638132 0.417422
vt 0.638132 0.417422
vt 0.672944 0.436030
vt 0.672944 0.436030
vt 1.000000 0.526014
vt 1.000000 0.973986
vt 0.968750 0.526014
vt 0.912865 0.582124
vt 0.920954 0.500000
vt 0.989888 0.500000
vt 0.980475 0.595572
vt 0.295875 0.480628
vt 0.250000 0.485146
vt 0.266131 0.850010
vt 0.338909 0.888910
vt 0.312528 0.952597
vt 0.227833 0.907327
vt 0.582124 0.087135
vt 0.595573 0.019526
vt 0.202341 0.797659
vt 0.153597 0.846403
vt 0.661093 0.111090
vt 0.687472 0.047403
vt 0.149990 0.733869
vt 0.092673 0.772167
vt 0.733870 0.149991
vt 0.772168 0.092673
vt 0.111090 0.661092
vt 0.047403 0.687472
vt 0.912865 0.417877
vt 0.980475 0.404428
vt 0.797660 0.202342
vt 0.846404 0.153597
vt 0.087135 0.582124
vt 0.019525 0.595572
vt 0.888910 0.661092
vt 0.952597 0.687472
vt 0.850010 0.266131
vt 0.907327 0.227834
vt 0.079047 0.500000
vt 0.010112 0.500000
vt 0.850010 0.733869
vt 0.907327 0.772167
vt 0.888910 0.338909
vt 0.952598 0.312529
vt 0.087136 0.417876
vt 0.019525 0.404427
vt 0.797659 0.797659
vt 0.846403 0.846403
vt 0.111090 0.338908
vt 0.047403 0.312528
vt 0.733869 0.850010
vt 0.772167 0.907327
vt 0.789283 0.447488
vt 0.789283 0.447488
vt 0.149990 0.266131
vt 0.092673 0.227833
vt 0.661092 0.888910
vt 0.687472 0.952597
vt 0.202342 0.202341
vt 0.153597 0.153597
vt 0.582124 0.912864
vt 0.595573 0.980475
vt 0.266131 0.149990
vt 0.227833 0.092673
vt 0.500000 0.920953
vt 0.500000 0.989888
vt 0.338909 0.111090
vt 0.312529 0.047403
vt 0.417876 0.912864
vt 0.404428 0.980475
vt 0.339987 0.467247
vt 0.204126 0.480628
vt 0.416273 0.416273
vt 0.380640 0.445517
vt 0.445517 0.380640
vt 0.467247 0.339987
vt 0.480628 0.295875
vt 0.485146 0.250000
vt 0.480628 0.204125
vt 0.467247 0.160014
vt 0.445517 0.119360
vt 0.416273 0.083727
vt 0.380640 0.054483
vt 0.339987 0.032753
vt 0.295875 0.019372
vt 0.250000 0.014854
vt 0.204125 0.019372
vt 0.160013 0.032753
vt 0.119360 0.054483
vt 0.083726 0.083727
vt 0.054483 0.119360
vt 0.032753 0.160014
vt 0.019372 0.204125
vt 0.014854 0.250000
vt 0.019372 0.295875
vt 0.032753 0.339987
vt 0.054483 0.380640
vt 0.083727 0.416274
vt 0.119360 0.445517
vt 0.160014 0.467247
vt 0.969066 0.500000
vt 0.999684 0.500000
vt 0.999684 1.000000
vt 0.969066 1.000000
vt 0.937816 0.500000
vt 0.968434 0.500000
vt 0.968434 1.000000
vt 0.937816 1.000000
vt 0.906566 0.500000
vt 0.937184 0.500000
vt 0.937184 1.000000
vt 0.906566 1.000000
vt 0.875316 0.500000
vt 0.905934 0.500000
vt 0.905934 1.000000
vt 0.875316 1.000000
vt 0.844066 0.500000
vt 0.874684 0.500000
vt 0.874684 1.000000
vt 0.844066 1.000000
vt 0.812816 0.500000
vt 0.843434 0.500000
vt 0.843434 1.000000
vt 0.812816 1.000000
vt 0.781566 0.500000
vt 0.812184 0.500000
vt 0.812184 1.000000
vt 0.781566 1.000000
vt 0.750316 0.500000
vt 0.780934 0.500000
vt 0.780934 1.000000
vt 0.750316 1.000000
vt 0.719066 0.500000
vt 0.749684 0.500000
vt 0.749684 1.000000
vt 0.719066 1.000000
vt 0.687816 0.500000
vt 0.718434 0.500000
vt 0.718434 1.000000
vt 0.687816 1.000000
vt 0.656566 0.500000
vt 0.687184 0.500000
vt 0.687184 1.000000
vt 0.656566 1.000000
vt 0.625316 0.500000
vt 0.655934 0.500000
vt 0.655934 1.000000
vt 0.625316 1.000000
vt 0.594066 0.500000
vt 0.624684 0.500000
vt 0.624684 1.000000
vt 0.594066 1.000000
vt 0.562816 0.500000
vt 0.593434 0.500000
vt 0.593434 1.000000
vt 0.562816 1.000000
vt 0.531566 0.500000
vt 0.562184 0.500000
vt 0.562184 1.000000
vt 0.531566 1.000000
vt 0.500316 0.500000
vt 0.530934 0.500000
vt 0.530934 1.000000
vt 0.500316 1.000000
vt 0.469066 0.500000
vt 0.499684 0.500000
vt 0.499684 1.000000
vt 0.469066 1.000000
vt 0.437816 0.500000
vt 0.468434 0.500000
vt 0.468434 1.000000
vt 0.437816 1.000000
vt 0.406566 0.500000
vt 0.437184 0.500000
vt 0.437184 1.000000
vt 0.406566 1.000000
vt 0.375316 0.500000
vt 0.405934 0.500000
vt 0.405934 1.000000
vt 0.375316 1.000000
vt 0.344066 0.500000
vt 0.374684 0.500000
vt 0.374684 1.000000
vt 0.344066 1.000000
vt 0.312816 0.500000
vt 0.343434 0.500000
vt 0.343434 1.000000
vt 0.312816 1.000000
vt 0.281566 0.500000
vt 0.312184 0.500000
vt 0.312184 1.000000
vt 0.281566 1.000000
vt 0.250316 0.500000
vt 0.280934 0.500000
vt 0.280934 1.000000
vt 0.250316 1.000000
vt 0.219066 0.500000
vt 0.249684 0.500000
vt 0.249684 1.000000
vt 0.219066 1.000000
vt 0.187816 0.500000
vt 0.218434 0.500000
vt 0.218434 1.000000
vt 0.187816 1.000000
vt 0.156566 0.500000
vt 0.187184 0.500000
vt 0.187184 1.000000
vt 0.156566 1.000000
vt 0.125316 0.500000
vt 0.155934 0.500000
vt 0.155934 1.000000
vt 0.125316 1.000000
vt 0.094066 0.500000
vt 0.124684 0.500000
vt 0.124684 1.000000
vt 0.094066 1.000000
vt 0.062816 0.500000
vt 0.093434 0.500000
vt 0.093434 1.000000
vt 0.062816 1.000000
vt 0.031566 0.500000
vt 0.062184 0.500000
vt 0.062184 1.000000
vt 0.031566 1.000000
vt 0.000316 0.500000
vt 0.030934 0.500000
vt 0.030934 1.000000
vt 0.000316 1.000000
vt 0.750000 0.451357
vt 0.789283 0.447488
vt 0.827056 0.436029
vt 0.861868 0.417422
vt 0.892381 0.392381
vt 0.917422 0.361868
vt 0.936029 0.327056
vt 0.947487 0.289283
vt 0.951356 0.250000
vt 0.947488 0.210717
vt 0.936029 0.172944
vt 0.917422 0.138132
vt 0.892380 0.107619
vt 0.861868 0.082578
vt 0.827056 0.063971
vt 0.789282 0.052512
vt 0.750000 0.048643
vt 0.710717 0.052512
vt 0.672944 0.063971
vt 0.638132 0.082578
vt 0.607619 0.107619
vt 0.582578 0.138132
vt 0.563970 0.172944
vt 0.552512 0.210717
vt 0.548643 0.250000
vt 0.552512 0.289283
vt 0.563971 0.327056
vt 0.582578 0.361868
vt 0.607619 0.392381
vt 0.638132 0.417422
vt 0.672944 0.436030
vt 0.710718 0.447488
vt 0.788799 0.447535
vt 0.750484 0.451309
vt 0.826591 0.436170
vt 0.789748 0.447347
vt 0.861439 0.417651
vt 0.827484 0.435800
vt 0.892005 0.392689
vt 0.862243 0.417114
vt 0.917114 0.362243
vt 0.892689 0.392005
vt 0.935800 0.327484
vt 0.917651 0.361439
vt 0.947346 0.289748
vt 0.936170 0.326591
vt 0.951309 0.250483
vt 0.947535 0.288799
vt 0.947535 0.211201
vt 0.951309 0.249517
vt 0.936170 0.173409
vt 0.947347 0.210252
vt 0.917651 0.138561
vt 0.935800 0.172516
vt 0.892689 0.107995
vt 0.917114 0.137757
vt 0.862243 0.082886
vt 0.892005 0.107311
vt 0.827484 0.064200
vt 0.861439 0.082349
vt 0.789747 0.052653
vt 0.826591 0.063830
vt 0.750483 0.048691
vt 0.788799 0.052465
vt 0.711200 0.052465
vt 0.749516 0.048691
vt 0.673409 0.063830
vt 0.710252 0.052653
vt 0.638560 0.082349
vt 0.672516 0.064200
vt 0.607995 0.107311
vt 0.637756 0.082886
vt 0.582886 0.137757
vt 0.607311 0.107995
vt 0.564199 0.172516
vt 0.582349 0.138561
vt 0.552653 0.210252
vt 0.563829 0.173409
vt 0.548691 0.249517
vt 0.552464 0.211201
vt 0.552465 0.288800
vt 0.548691 0.250484
vt 0.563830 0.326591
vt 0.552653 0.289748
vt 0.582349 0.361440
vt 0.564200 0.327485
vt 0.607311 0.392005
vt 0.582886 0.362244
vt 0.637757 0.417114
vt 0.607995 0.392689
vt 0.672516 0.435801
vt 0.638561 0.417651
vt 0.710253 0.447347
vt 0.673409 0.436171
vt 0.749517 0.451309
vt 0.711201 0.447535
vt 0.900729 0.500000
vt 0.893029 0.578178
vt 0.870225 0.653352
vt 0.833193 0.722633
vt 0.783358 0.783358
vt 0.722633 0.833194
vt 0.653352 0.870225
vt 0.578178 0.893028
vt 0.500000 0.900728
vt 0.421821 0.893028
vt 0.346648 0.870225
vt 0.277367 0.833193
vt 0.216642 0.783358
vt 0.166806 0.722633
vt 0.129775 0.653352
vt 0.106971 0.578178
vt 0.099272 0.500000
vt 0.106971 0.421822
vt 0.129775 0.346648
vt 0.166806 0.277367
vt 0.216642 0.216642
vt 0.277367 0.166806
vt 0.346648 0.129775
vt 0.421822 0.106971
vt 0.500000 0.099272
vt 0.578179 0.106971
vt 0.653353 0.129775
vt 0.722634 0.166807
vt 0.783359 0.216642
vt 0.833194 0.277368
vt 0.870225 0.346648
vt 0.893029 0.421822
vt 0.375000 0.015140
vt 0.375000 0.234860
vt 0.375000 0.234860
vt 0.375000 0.015140
vt 0.390140 0.911716
vt 0.609860 0.875000
vt 0.609860 0.940639
vt 0.375000 0.940542
vt 0.584745 0.364529
vt 0.438697 0.364529
vt 0.438697 0.009167
vt 0.584745 0.009167
vt 0.390140 0.806933
vt 0.609860 0.806933
vt 0.375000 0.937500
vt 0.375000 0.940425
vt 0.375000 0.937500
vt 0.390140 0.515140
vt 0.609860 0.515140
vt 0.609860 0.734860
vt 0.390140 0.734860
vt 0.375000 0.309458
vt 0.609860 0.309361
vt 0.609860 0.375000
vt 0.390140 0.338284
vt 0.609860 0.443067
vt 0.390140 0.443067
vt 0.181934 0.515140
vt 0.193066 0.515140
vt 0.193066 0.734860
vt 0.181934 0.734860
vt 0.681933 0.515140
vt 0.750000 0.515140
vt 0.750000 0.734860
vt 0.681933 0.734860
vt 0.375000 0.312500
vt 0.375000 0.312500
vt 0.375000 0.309575
vt 0.306933 0.515140
vt 0.318067 0.515140
vt 0.318067 0.734860
vt 0.306933 0.734860
vt 0.609860 0.015140
vt 0.609860 0.234860
vt 0.818067 0.515140
vt 0.818066 0.734860
vt 0.625000 0.943066
vt 0.609860 1.000000
vt 0.625000 0.306933
vt 0.625000 0.309361
vt 0.609860 0.250000
vt 0.375000 0.734860
vt 0.375000 0.734860
vt 0.390140 0.750000
vt 0.625000 0.806933
vt 0.609860 0.750000
vt 0.609860 0.750000
vt 0.390140 0.500000
vt 0.375000 0.515140
vt 0.375000 0.515140
vt 0.625000 0.515140
vt 0.609860 0.500000
vt 0.609860 0.500000
vt 0.250000 0.515140
vt 0.250000 0.500000
vt 0.213284 0.750000
vt 0.250000 0.734860
vt 0.250000 0.734860
vt 0.375000 0.250000
vt 0.375000 0.234860
vt 0.375000 0.015140
vt 0.375000 0.000000
vt 0.375000 0.375000
vt 0.375000 0.318066
vt 0.375000 0.931934
vt 0.375000 0.875000
vt 0.375000 1.000000
vt 0.875000 0.515140
vt 0.875000 0.734860
vt 0.625000 0.375000
vt 0.625000 0.443067
vt 0.318067 0.750000
vt 0.250000 0.750000
vt 0.625000 0.875000
vt 0.318067 0.500000
vt 0.375000 0.306934
vt 0.375000 0.943066
vt 0.438697 0.000000
vt 0.584745 0.000000
vt 0.375000 0.875000
vt 0.375000 0.375000
vt 0.375000 1.000000
vn 0.0000 -0.0980 -0.9952
vn 0.0000 0.4714 -0.8819
vn 0.0000 0.6344 -0.7730
vn 0.0000 0.7730 -0.6344
vn 0.0000 0.8819 -0.4714
vn 0.0000 0.9569 -0.2903
vn 0.0000 0.9952 -0.0980
vn 0.0000 0.9952 0.0980
vn 0.0000 0.9569 0.2903
vn 0.0000 0.8819 0.4714
vn 0.0000 0.7730 0.6344
vn 0.0000 0.6344 0.7730
vn 0.0000 0.4714 0.8819
vn 0.0000 0.2903 0.9569
vn 0.0000 0.0980 0.9952
vn 0.0000 -0.0980 0.9952
vn 0.0000 -0.2903 0.9569
vn -0.0000 -0.4714 0.8819
vn -0.0000 -0.6344 0.7730
vn -0.0000 -0.7730 0.6344
vn -0.0000 -0.8819 0.4714
vn -0.0000 -0.9569 0.2903
vn -0.0000 -0.9952 0.0980
vn -0.0000 -0.9952 -0.0980
vn -0.0000 -0.9569 -0.2903
vn -0.0000 -0.8819 -0.4714
vn -0.0000 -0.7730 -0.6344
vn 0.0000 -0.6344 -0.7730
vn -0.0000 -0.4714 -0.8819
vn -0.0000 -0.2903 -0.9569
vn -1.0000 0.0000 0.0000
vn -0.0000 0.2903 -0.9569
vn 0.0000 0.0980 -0.9952
vn 1.0000 -0.0000 0.0000
vn 0.7071 0.0693 -0.7037
vn -0.7071 0.0693 -0.7037
vn 0.7071 0.2053 -0.6767
vn -0.7071 0.2053 -0.6767
vn 0.7071 0.3333 -0.6236
vn -0.7071 0.3333 -0.6236
vn 0.7071 0.4486 -0.5466
vn -0.7071 0.4486 -0.5466
vn 0.7071 0.5466 -0.4486
vn -0.7071 0.5466 -0.4486
vn 0.7071 0.6236 -0.3333
vn -0.7071 0.6236 -0.3333
vn 0.7071 0.6767 -0.2053
vn -0.7071 0.6767 -0.2053
vn 0.7071 0.7037 -0.0693
vn -0.7071 0.7037 -0.0693
vn 0.7071 0.7037 0.0693
vn -0.7071 0.7037 0.0693
vn 0.7071 0.6767 0.2053
vn -0.7071 0.6767 0.2053
vn 0.7071 0.6236 0.3333
vn -0.7071 0.6236 0.3333
vn 0.7071 0.5466 0.4486
vn -0.7071 0.5466 0.4486
vn 0.7071 0.4486 0.5466
vn -0.7071 0.4486 0.5466
vn 0.7071 0.3333 0.6236
vn -0.7071 0.3333 0.6236
vn 0.7071 0.2053 0.6767
vn -0.7071 0.2053 0.6767
vn 0.7071 0.0693 0.7037
vn -0.7071 0.0693 0.7037
vn 0.7071 -0.0693 0.7037
vn -0.7071 -0.0693 0.7037
vn 0.7071 -0.2053 0.6767
vn -0.7071 -0.2053 0.6767
vn 0.7071 -0.3333 0.6236
vn -0.7071 -0.3333 0.6236
vn 0.7071 -0.4486 0.5466
vn -0.7071 -0.4486 0.5466
vn 0.7071 -0.5466 0.4486
vn -0.7071 -0.5466 0.4486
vn 0.7071 -0.6236 0.3333
vn -0.7071 -0.6236 0.3333
vn 0.7071 -0.6767 0.2053
vn -0.7071 -0.6767 0.2053
vn 0.7071 -0.7037 0.0693
vn -0.7071 -0.7037 0.0693
vn 0.7071 -0.7037 -0.0693
vn -0.7071 -0.7037 -0.0693
vn 0.7071 -0.6767 -0.2053
vn -0.7071 -0.6767 -0.2053
vn 0.7071 -0.6236 -0.3333
vn -0.7071 -0.6236 -0.3333
vn 0.7071 -0.5466 -0.4486
vn -0.7071 -0.5466 -0.4486
vn 0.7071 -0.4486 -0.5466
vn -0.7071 -0.4486 -0.5466
vn 0.7071 -0.3333 -0.6236
vn -0.7071 -0.3333 -0.6236
vn 0.7071 -0.2053 -0.6767
vn -0.7071 -0.2053 -0.6767
vn 0.7071 -0.0693 -0.7037
vn -0.7071 -0.0693 -0.7037
vn -0.9109 0.4125 0.0000
vn 0.0000 0.0000 1.0000
vn 0.9109 -0.4125 0.0000
vn 0.0000 0.0000 -1.0000
vn 0.0000 -1.0000 0.0000
vn 0.0000 1.0000 0.0000
vn -0.5691 0.5692 0.5934
vn -0.5691 0.5692 -0.5934
vn 0.5773 -0.5774 0.5774
vn 0.5773 0.5774 0.5774
vn 0.5773 -0.5774 -0.5774
vn 0.5773 0.5774 -0.5774
vn 0.2710 -0.4202 -0.8660
vn 0.2710 -0.4202 0.8660
vn -0.6058 -0.3907 -0.6931
vn -0.6058 -0.3907 0.6931
vn 0.4548 -0.7053 -0.5438
vn 0.4548 -0.7053 0.5438
vn -0.6919 -0.0000 0.7220
vn -0.7071 0.7071 0.0000
vn -0.6919 -0.0000 -0.7220
vn 0.0000 0.7071 -0.7071
vn 0.7071 0.0000 -0.7071
vn 0.7071 -0.7071 0.0000
vn 0.7071 0.7071 0.0000
vn 0.7071 0.0000 0.7071
vn 0.0000 -0.7071 0.7071
vn 0.0000 0.7071 0.7071
vn 0.0000 -0.7071 -0.7071
vn 0.5420 -0.8404 0.0000
vn -0.8404 -0.5420 0.0000
vn 0.6441 -0.2917 0.7071
vn 0.6441 -0.2917 -0.7071
vn -0.6597 0.2987 -0.6896
vn -0.6597 0.2987 0.6896
usemtl C
s off
f 255/194/57 384/195/57 323/196/57 194/197/57
f 197/198/58 326/199/58 328/200/58 199/201/58
f 199/201/59 328/200/59 330/202/59 201/203/59
f 201/203/60 330/202/60 332/204/60 203/205/60
f 203/205/61 332/204/61 334/206/61 205/207/61
f 205/207/62 334/206/62 336/208/62 207/209/62
f 207/209/63 336/208/63 338/210/63 209/211/63
f 209/211/64 338/210/64 340/212/64 211/213/64
f 211/213/65 340/212/65 342/214/65 213/215/65
f 213/215/66 342/214/66 344/216/66 215/217/66
f 215/217/67 344/216/67 346/218/67 217/219/67
f 217/219/68 346/218/68 348/220/68 219/221/68
f 219/221/69 348/220/69 350/222/69 221/223/69
f 221/223/70 350/222/70 352/224/70 223/225/70
f 223/225/71 352/224/71 354/226/71 225/227/71
f 225/227/72 354/226/72 356/228/72 227/229/72
f 227/229/73 356/228/73 358/230/73 229/231/73
f 229/231/74 358/230/74 360/232/74 231/233/74
f 231/233/75 360/232/75 362/234/75 233/235/75
f 233/235/76 362/234/76 364/236/76 235/237/76
f 235/237/77 364/236/77 366/238/77 237/239/77
f 237/239/78 366/238/78 368/240/78 239/241/78
f 239/241/79 368/240/79 370/242/79 241/243/79
f 241/243/80 370/242/80 372/244/80 243/245/80
f 243/246/81 372/247/81 374/248/81 245/249/81
f 245/249/82 374/248/82 376/250/82 247/251/82
f 247/251/83 376/250/83 378/252/83 249/253/83
f 249/253/84 378/252/84 380/254/84 251/255/84
f 251/256/85 380/257/85 382/258/85 253/259/85
f 253/259/86 382/258/86 384/195/86 255/194/86
f 98/260/87 97/261/87 128/262/87 127/263/87 126/264/87 125/265/87 124/266/87 123/267/87 122/268/87 121/269/87 120/270/87 119/271/87 118/272/87 117/273/87 116/274/87 115/275/87 114/276/87 113/277/87 112/278/87 111/279/87 110/280/87 109/281/87 108/282/87 107/283/87 106/284/87 105/285/87 104/286/87 103/287/87 102/288/87 101/289/87 100/290/87 99/291/87
f 195/292/88 322/293/88 326/199/88 197/198/88
f 178/294/64 180/295/64 307/296/64 305/297/64
f 192/298/71 129/299/71 258/300/71 319/301/71
f 134/302/74 136/303/74 263/304/74 261/305/74
f 136/303/75 138/306/75 265/307/75 263/304/75
f 138/306/76 140/308/76 267/309/76 265/307/76
f 140/308/77 142/310/77 269/311/77 267/309/77
f 142/310/78 144/312/78 271/313/78 269/311/78
f 144/312/79 146/314/79 273/315/79 271/313/79
f 146/314/80 148/316/80 275/317/80 273/315/80
f 148/316/81 150/318/81 277/319/81 275/317/81
f 150/318/82 152/320/82 279/321/82 277/319/82
f 152/320/83 154/322/83 281/323/83 279/321/83
f 154/322/84 156/324/84 283/325/84 281/323/84
f 156/324/85 158/326/85 285/327/85 283/325/85
f 158/326/86 160/328/86 287/329/86 285/327/86
f 160/328/57 162/330/57 289/331/57 287/329/57
f 162/330/89 164/332/89 291/333/89 289/331/89
f 164/332/88 166/334/88 293/335/88 291/333/88
f 166/334/58 168/336/58 295/337/58 293/335/58
f 168/336/59 170/338/59 297/339/59 295/337/59
f 170/338/60 172/340/60 299/341/60 297/339/60
f 172/340/61 174/342/61 301/343/61 299/341/61
f 174/342/62 176/344/62 303/345/62 301/343/62
f 177/346/90 175/347/90 240/348/90 242/349/90
f 176/344/63 178/294/63 305/297/63 303/345/63
f 180/295/65 182/350/65 309/351/65 307/296/65
f 182/350/66 184/352/66 311/353/66 309/351/66
f 184/352/67 186/354/67 313/355/67 311/353/67
f 186/354/68 188/356/68 315/357/68 313/355/68
f 188/356/69 190/358/69 317/359/69 315/357/69
f 190/358/70 192/298/70 319/301/70 317/359/70
f 194/360/89 323/361/89 322/293/89 195/362/89
f 131/363/90 130/364/90 193/365/90 196/366/90
f 97/261/87 98/260/87 321/367/87 324/368/87
f 151/369/90 149/370/90 214/371/90 216/372/90
f 179/373/90 177/346/90 242/349/90 244/374/90
f 153/375/90 151/369/90 216/372/90 218/376/90
f 181/377/90 179/373/90 244/374/90 246/378/90
f 155/379/90 153/375/90 218/376/90 220/380/90
f 183/381/90 181/377/90 246/378/90 248/382/90
f 157/383/90 155/379/90 220/380/90 222/384/90
f 130/364/90 191/385/90 256/386/90 193/365/90
f 185/387/90 183/381/90 248/382/90 250/388/90
f 159/389/90 157/383/90 222/384/90 224/390/90
f 133/391/90 131/363/90 196/366/90 198/392/90
f 187/393/90 185/387/90 250/388/90 252/394/90
f 161/395/90 159/389/90 224/390/90 226/396/90
f 135/397/90 133/391/90 198/392/90 200/398/90
f 189/399/90 187/393/90 252/394/90 254/400/90
f 163/401/90 161/395/90 226/396/90 228/402/90
f 137/403/90 135/397/90 200/398/90 202/404/90
f 191/385/90 189/399/90 254/400/90 256/386/90
f 165/405/90 163/401/90 228/402/90 230/406/90
f 139/407/90 137/403/90 202/404/90 204/408/90
f 132/409/73 134/302/73 261/305/73 259/410/73
f 167/411/90 165/405/90 230/406/90 232/412/90
f 141/413/90 139/407/90 204/408/90 206/414/90
f 169/415/90 167/411/90 232/412/90 234/416/90
f 143/417/90 141/413/90 206/414/90 208/418/90
f 171/419/90 169/415/90 234/416/90 236/420/90
f 145/421/90 143/417/90 208/418/90 210/422/90
f 173/423/90 171/419/90 236/420/90 238/424/90
f 147/425/90 145/421/90 210/422/90 212/426/90
f 175/347/90 173/423/90 238/424/90 240/348/90
f 149/370/90 147/425/90 212/426/90 214/371/90
f 98/260/87 99/291/87 325/427/87 321/367/87
f 128/262/87 97/261/87 324/368/87 383/428/87
f 100/290/87 101/289/87 329/429/87 327/430/87
f 101/289/87 102/288/87 331/431/87 329/429/87
f 102/288/87 103/287/87 333/432/87 331/431/87
f 103/287/87 104/286/87 335/433/87 333/432/87
f 104/286/87 105/285/87 337/434/87 335/433/87
f 105/285/87 106/284/87 339/435/87 337/434/87
f 106/284/87 107/283/87 341/436/87 339/435/87
f 107/283/87 108/282/87 343/437/87 341/436/87
f 108/282/87 109/281/87 345/438/87 343/437/87
f 109/281/87 110/280/87 347/439/87 345/438/87
f 110/280/87 111/279/87 349/440/87 347/439/87
f 111/279/87 112/278/87 351/441/87 349/440/87
f 112/278/87 113/277/87 353/442/87 351/441/87
f 113/277/87 114/276/87 355/443/87 353/442/87
f 114/276/87 115/275/87 357/444/87 355/443/87
f 115/275/87 116/274/87 359/445/87 357/444/87
f 116/274/87 117/273/87 361/446/87 359/445/87
f 117/273/87 118/272/87 363/447/87 361/446/87
f 118/272/87 119/271/87 365/448/87 363/447/87
f 119/271/87 120/270/87 367/449/87 365/448/87
f 120/270/87 121/269/87 369/450/87 367/449/87
f 121/269/87 122/268/87 371/451/87 369/450/87
f 122/268/87 123/267/87 373/452/87 371/451/87
f 123/267/87 124/266/87 375/453/87 373/452/87
f 124/266/87 125/265/87 377/454/87 375/453/87
f 125/265/87 126/264/87 379/455/87 377/454/87
f 126/264/87 127/263/87 381/456/87 379/455/87
f 127/263/87 128/262/87 383/428/87 381/456/87
f 99/291/87 100/290/87 327/430/87 325/427/87
f 194/360/91 195/362/91 196/457/91 193/458/91
f 322/293/92 323/361/92 324/459/92 321/460/92
f 195/292/93 197/198/93 198/461/93 196/462/93
f 326/199/94 322/293/94 321/463/94 325/464/94
f 197/198/95 199/201/95 200/465/95 198/466/95
f 328/200/96 326/199/96 325/467/96 327/468/96
f 199/201/97 201/203/97 202/469/97 200/470/97
f 330/202/98 328/200/98 327/471/98 329/472/98
f 201/203/99 203/205/99 204/473/99 202/474/99
f 332/204/100 330/202/100 329/475/100 331/476/100
f 203/205/101 205/207/101 206/477/101 204/478/101
f 334/206/102 332/204/102 331/479/102 333/480/102
f 205/207/103 207/209/103 208/481/103 206/482/103
f 336/208/104 334/206/104 333/483/104 335/484/104
f 207/209/105 209/211/105 210/485/105 208/486/105
f 338/210/106 336/208/106 335/487/106 337/488/106
f 209/211/107 211/213/107 212/489/107 210/490/107
f 340/212/108 338/210/108 337/491/108 339/492/108
f 211/213/109 213/215/109 214/493/109 212/494/109
f 342/214/110 340/212/110 339/495/110 341/496/110
f 213/215/111 215/217/111 216/497/111 214/498/111
f 344/216/112 342/214/112 341/499/112 343/500/112
f 215/217/113 217/219/113 218/501/113 216/502/113
f 346/218/114 344/216/114 343/503/114 345/504/114
f 217/219/115 219/221/115 220/505/115 218/506/115
f 348/220/116 346/218/116 345/507/116 347/508/116
f 219/221/117 221/223/117 222/509/117 220/510/117
f 350/222/118 348/220/118 347/511/118 349/512/118
f 221/223/119 223/225/119 224/513/119 222/514/119
f 352/224/120 350/222/120 349/515/120 351/516/120
f 223/225/121 225/227/121 226/517/121 224/518/121
f 354/226/122 352/224/122 351/519/122 353/520/122
f 225/227/123 227/229/123 228/521/123 226/522/123
f 356/228/124 354/226/124 353/523/124 355/524/124
f 227/229/125 229/231/125 230/525/125 228/526/125
f 358/230/126 356/228/126 355/527/126 357/528/126
f 229/231/127 231/233/127 232/529/127 230/530/127
f 360/232/128 358/230/128 357/531/128 359/532/128
f 231/233/129 233/235/129 234/533/129 232/534/129
f 362/234/130 360/232/130 359/535/130 361/536/130
f 233/235/131 235/237/131 236/537/131 234/538/131
f 364/236/132 362/234/132 361/539/132 363/540/132
f 235/237/133 237/239/133 238/541/133 236/542/133
f 366/238/134 364/236/134 363/543/134 365/544/134
f 237/239/135 239/241/135 240/545/135 238/546/135
f 368/240/136 366/238/136 365/547/136 367/548/136
f 239/241/137 241/243/137 242/549/137 240/550/137
f 370/242/138 368/240/138 367/551/138 369/552/138
f 241/243/139 243/245/139 244/553/139 242/554/139
f 372/244/140 370/242/140 369/555/140 371/556/140
f 243/246/141 245/249/141 246/557/141 244/558/141
f 374/248/142 372/247/142 371/559/142 373/560/142
f 245/249/143 247/251/143 248/561/143 246/562/143
f 376/250/144 374/248/144 373/563/144 375/564/144
f 247/251/145 249/253/145 250/565/145 248/566/145
f 378/252/146 376/250/146 375/567/146 377/568/146
f 249/253/147 251/255/147 252/569/147 250/570/147
f 380/254/148 378/252/148 377/571/148 379/572/148
f 251/256/149 253/259/149 254/573/149 252/574/149
f 382/258/150 380/257/150 379/575/150 381/576/150
f 253/259/151 255/194/151 256/577/151 254/578/151
f 384/195/152 382/258/152 381/579/152 383/580/152
f 255/194/153 194/197/153 193/581/153 256/582/153
f 323/196/154 384/195/154 383/583/154 324/584/154
f 130/585/123 131/586/123 132/409/123 129/299/123
f 131/586/125 133/587/125 134/302/125 132/409/125
f 133/587/127 135/588/127 136/303/127 134/302/127
f 135/588/129 137/589/129 138/306/129 136/303/129
f 137/589/131 139/590/131 140/308/131 138/306/131
f 139/590/133 141/591/133 142/310/133 140/308/133
f 141/591/135 143/592/135 144/312/135 142/310/135
f 143/592/137 145/593/137 146/314/137 144/312/137
f 145/593/139 147/594/139 148/316/139 146/314/139
f 147/594/141 149/595/141 150/318/141 148/316/141
f 149/595/143 151/596/143 152/320/143 150/318/143
f 151/596/145 153/597/145 154/322/145 152/320/145
f 153/597/147 155/598/147 156/324/147 154/322/147
f 155/598/149 157/599/149 158/326/149 156/324/149
f 157/599/151 159/600/151 160/328/151 158/326/151
f 159/600/153 161/601/153 162/330/153 160/328/153
f 161/601/91 163/602/91 164/332/91 162/330/91
f 163/602/93 165/603/93 166/334/93 164/332/93
f 165/603/95 167/604/95 168/336/95 166/334/95
f 167/604/97 169/605/97 170/338/97 168/336/97
f 169/605/99 171/606/99 172/340/99 170/338/99
f 171/606/101 173/607/101 174/342/101 172/340/101
f 173/607/103 175/608/103 176/344/103 174/342/103
f 175/608/105 177/609/105 178/294/105 176/344/105
f 177/609/107 179/610/107 180/295/107 178/294/107
f 179/610/109 181/611/109 182/350/109 180/295/109
f 181/611/111 183/612/111 184/352/111 182/350/111
f 183/612/113 185/613/113 186/354/113 184/352/113
f 185/613/115 187/614/115 188/356/115 186/354/115
f 187/614/117 189/615/117 190/358/117 188/356/117
f 189/615/119 191/616/119 192/298/119 190/358/119
f 191/616/121 130/585/121 129/299/121 192/298/121
f 258/300/123 259/410/123 260/617/123 257/618/123
f 259/410/125 261/305/125 262/619/125 260/620/125
f 261/305/127 263/304/127 264/621/127 262/622/127
f 263/304/129 265/307/129 266/623/129 264/624/129
f 265/307/131 267/309/131 268/625/131 266/626/131
f 267/309/133 269/311/133 270/627/133 268/628/133
f 269/311/135 271/313/135 272/629/135 270/630/135
f 271/313/137 273/315/137 274/631/137 272/632/137
f 273/315/139 275/317/139 276/633/139 274/634/139
f 275/317/141 277/319/141 278/635/141 276/636/141
f 277/319/143 279/321/143 280/637/143 278/638/143
f 279/321/145 281/323/145 282/639/145 280/640/145
f 281/323/147 283/325/147 284/641/147 282/642/147
f 283/325/149 285/327/149 286/643/149 284/644/149
f 285/327/151 287/329/151 288/645/151 286/646/151
f 287/329/153 289/331/153 290/647/153 288/648/153
f 289/331/91 291/333/91 292/649/91 290/650/91
f 291/333/93 293/335/93 294/651/93 292/652/93
f 293/335/95 295/337/95 296/653/95 294/654/95
f 295/337/97 297/339/97 298/655/97 296/656/97
f 297/339/99 299/341/99 300/657/99 298/658/99
f 299/341/101 301/343/101 302/659/101 300/660/101
f 301/343/103 303/345/103 304/661/103 302/662/103
f 303/345/105 305/297/105 306/663/105 304/664/105
f 305/297/107 307/296/107 308/665/107 306/666/107
f 307/296/109 309/351/109 310/667/109 308/668/109
f 309/351/111 311/353/111 312/669/111 310/670/111
f 311/353/113 313/355/113 314/671/113 312/672/113
f 313/355/115 315/357/115 316/673/115 314/674/115
f 315/357/117 317/359/117 318/675/117 316/676/117
f 317/359/119 319/301/119 320/677/119 318/678/119
f 319/301/121 258/300/121 257/679/121 320/680/121
f 129/299/72 132/409/72 259/410/72 258/300/72
usemtl Photo
f 257/681/90 260/682/90 262/683/90 264/684/90 266/685/90 268/686/90 270/687/90 272/688/90 274/689/90 276/690/90 278/691/90 280/692/90 282/693/90 284/694/90 286/695/90 288/696/90 290/697/90 292/698/90 294/699/90 296/700/90 298/701/90 300/702/90 302/703/90 304/704/90 306/705/90 308/706/90 310/707/90 312/708/90 314/709/90 316/710/90 318/711/90 320/712/90
usemtl Back
f 385/713/155 391/714/155 417/715/155 420/716/155
f 412/717/156 415/718/156 387/719/156 386/720/156
f 408/721/157 413/722/157 428/723/157 424/724/157
f 397/725/156 399/726/156 415/718/156 412/717/156
f 412/727/156 386/720/156 422/728/156 426/729/156
f 402/730/90 405/731/90 400/732/90 396/733/90
f 390/734/158 393/735/158 410/736/158 409/737/158
f 409/737/158 410/736/158 406/738/158 401/739/158
f 419/740/159 425/741/159 427/742/159 421/743/159
f 404/744/160 411/745/160 416/746/160 398/747/160
f 390/734/158 409/748/158 423/749/158 418/750/158
f 407/751/159 403/752/159 395/753/159 414/754/159
f 385/713/87 389/755/87 394/756/87 391/714/87
f 411/745/160 392/757/160 388/758/160 416/746/160
f 387/719/161 388/759/161 389/760/161
f 392/761/162 393/762/162 394/763/162
f 395/764/163 396/765/163 397/766/163
f 398/767/164 399/768/164 400/769/164
f 401/770/165 402/771/165 403/772/165
f 404/773/166 405/774/166 406/775/166
f 407/751/167 408/776/167 409/777/167
f 412/778/168 413/779/168 414/780/168
f 417/715/169 418/781/169 419/782/169
f 420/716/170 421/783/170 422/784/170
f 423/749/171 424/785/171 425/786/171
f 426/729/172 427/787/172 428/788/172
f 386/720/173 387/719/173 389/760/173 385/789/173
f 388/758/174 392/757/174 394/790/174 389/791/174
f 393/735/175 390/734/175 391/714/175 394/756/175
f 411/792/176 404/793/176 406/738/176 410/736/176
f 405/731/177 402/730/177 401/739/177 406/738/177
f 395/753/178 403/752/178 402/730/178 396/733/178
f 404/744/179 398/747/179 400/732/179 405/731/179
f 399/726/180 397/725/180 396/733/180 400/732/180
f 414/754/181 395/753/181 397/794/181 412/795/181
f 416/796/182 388/759/182 387/719/182 415/718/182
f 403/752/183 407/751/183 409/777/183 401/797/183
f 392/761/176 411/792/176 410/736/176 393/735/176
f 398/767/182 416/796/182 415/718/182 399/726/182
f 407/751/184 414/754/184 413/779/184 408/776/184
f 419/782/185 421/783/185 420/716/185 417/715/185
f 425/786/183 419/798/183 418/750/183 423/749/183
f 421/799/181 427/787/181 426/729/181 422/728/181
f 424/724/184 428/723/184 427/800/184 425/801/184
f 412/727/186 426/729/186 428/788/186 413/802/186
f 423/749/187 409/748/187 408/803/187 424/785/187
f 417/715/188 391/714/188 390/734/188 418/750/188
f 422/728/189 386/720/189 385/789/189 420/804/189
o Cube.001_Cube.002
v -0.193428 0.188873 3.753531
v -0.193428 0.188873 2.131276
v -0.193428 1.549063 2.946518
v 0.173301 0.165417 3.756859
v 0.173301 0.182751 3.766756
v 0.193428 0.148856 3.811536
v 0.173301 0.182706 2.118126
v 0.173301 0.165417 2.127948
v 0.193428 0.148594 2.072710
v 0.173301 1.555230 2.936213
v 0.193428 1.614445 2.946239
v 0.173301 1.555185 2.956748
v 0.173301 0.017331 1.772828
v 0.193428 0.016750 1.797551
v 0.173301 0.000000 1.782721
v 0.193428 0.016565 4.087519
v 0.173301 0.017341 4.111860
v 0.173301 0.000000 4.101950
v 0.193428 1.957839 2.943958
v 0.173301 1.982669 2.933443
v 0.173301 1.982659 2.953895
v 0.102357 0.185544 2.143249
v 0.122484 0.165417 2.127948
v 0.122484 0.182706 2.118126
v 0.122484 0.165417 3.756859
v 0.102357 0.185544 3.741736
v 0.122484 0.182751 3.766756
v 0.122484 1.555185 2.956748
v 0.102357 1.533064 2.946432
v 0.122484 1.555230 2.936213
v -0.193428 0.018033 1.797794
v -0.173301 0.017331 1.772828
v -0.173301 0.000000 1.782721
v -0.173301 0.000000 4.101950
v -0.173301 0.017341 4.111860
v -0.193428 0.017861 4.087224
v -0.173301 1.982659 2.953895
v -0.173301 1.982669 2.933443
v -0.193428 1.958640 2.943938
v -0.281808 0.747393 3.072466
v -0.260788 0.747393 3.092593
v -0.260823 1.059617 3.092593
v -0.261681 1.079744 3.072466
v -0.281808 1.059617 3.072466
v -0.260788 0.747393 2.760242
v -0.281808 0.747393 2.780370
v -0.261681 1.079744 2.780370
v -0.260823 1.059617 2.760242
v -0.281808 1.059617 2.780370
v -0.213555 0.747393 3.072466
v -0.193428 0.767520 3.072466
v -0.213555 0.767520 3.092593
v -0.213555 1.079744 3.072466
v -0.213555 1.059617 3.092593
v -0.193428 1.059617 3.072466
v -0.213555 0.767520 2.760242
v -0.193428 0.767520 2.780370
v -0.213555 0.747393 2.780370
v -0.213555 1.079744 2.780370
v -0.193428 1.059617 2.780370
v -0.213555 1.059617 2.760242
v -0.217491 0.747393 2.780370
v -0.245921 0.729059 2.780370
v -0.250598 0.767520 2.760242
v -0.237618 1.059617 2.760242
v -0.237618 1.079744 2.780370
v -0.250598 0.767520 3.092593
v -0.245921 0.729059 3.072466
v -0.217491 0.747393 3.072466
v -0.237618 1.059617 3.092593
v -0.237618 1.079744 3.072466
v -0.611986 0.018335 2.780370
v -0.590113 0.020127 2.760242
v -0.600162 0.000000 2.780370
v -0.611986 0.018335 3.072466
v -0.600162 0.000000 3.072466
v -0.590113 0.020127 3.092593
v -0.589079 0.020127 2.760242
v -0.567796 0.018335 2.780370
v -0.596227 0.000000 2.780370
v -0.589079 0.020127 3.092593
v -0.596227 0.000000 3.072466
v -0.567796 0.018335 3.072466
vt 0.398609 0.023609
vt 0.601391 0.226391
vt 0.398609 0.226391
vt 0.377168 0.763007
vt 0.622832 0.763007
vt 0.622832 0.986993
vt 0.377168 0.986993
vt 0.131614 0.074428
vt 0.498345 0.807222
vt 0.499312 0.978919
vt 0.014647 0.008283
vt 0.377166 0.263007
vt 0.622834 0.263007
vt 0.622834 0.486993
vt 0.377166 0.486993
vt 0.138007 0.502133
vt 0.361993 0.502133
vt 0.361993 0.747867
vt 0.138007 0.747867
vt 0.601753 0.729323
vt 0.398247 0.729323
vt 0.398247 0.729323
vt 0.601753 0.729323
vt 0.398241 0.520677
vt 0.601759 0.520677
vt 0.601759 0.520677
vt 0.398241 0.520677
vt 0.377254 0.247746
vt 0.377233 0.002233
vt 0.868566 0.074297
vt 0.985184 0.008375
vt 0.622835 0.247835
vt 0.601391 0.023609
vt 0.622835 0.002165
vt 0.395677 0.726807
vt 0.395677 0.729323
vt 0.395677 0.729323
vt 0.395677 0.521965
vt 0.395677 0.523193
vt 0.395677 0.520677
vt 0.604323 0.520677
vt 0.604323 0.520677
vt 0.378466 0.500000
vt 0.375000 0.486993
vt 0.378426 0.750000
vt 0.375000 0.763007
vt 0.375000 0.763007
vt 0.621108 0.500000
vt 0.622834 0.500000
vt 0.625000 0.486993
vt 0.395677 0.525106
vt 0.395677 0.523193
vt 0.395677 0.520677
vt 0.395677 0.726807
vt 0.395677 0.724917
vt 0.395677 0.729323
vt 0.599989 0.729323
vt 0.604323 0.729323
vt 0.375969 0.249031
vt 0.375000 0.247867
vt 0.375000 0.002133
vt 0.375969 0.000969
vt 0.622832 0.000000
vt 0.624096 0.000904
vt 0.377168 0.000000
vt 0.375000 0.263007
vt 0.375000 0.503704
vt 0.375000 0.746338
vt 0.621073 0.750000
vt 0.375000 0.986993
vt 0.625000 0.263007
vt 0.400179 0.729323
vt 0.604323 0.729323
vt 0.600001 0.520677
vt 0.400190 0.520677
vt 0.604323 0.729323
vt 0.838670 0.092772
vt 0.498263 0.766532
vt 0.161197 0.092772
vt 0.375000 0.015140
vt 0.375000 0.234860
vt 0.375000 0.234860
vt 0.375000 0.015140
vt 0.390140 0.911716
vt 0.609860 0.875000
vt 0.609860 0.940639
vt 0.375000 0.940542
vt 0.250000 0.515140
vt 0.250000 0.734860
vt 0.250000 0.734860
vt 0.250000 0.515140
vt 0.390140 0.806934
vt 0.609860 0.806934
vt 0.375000 0.937500
vt 0.375000 0.940425
vt 0.375000 0.937500
vt 0.390140 0.515140
vt 0.609860 0.515140
vt 0.609860 0.734860
vt 0.390140 0.734860
vt 0.375000 0.309458
vt 0.609860 0.309361
vt 0.609860 0.375000
vt 0.390140 0.338284
vt 0.609860 0.443067
vt 0.390140 0.443067
vt 0.181934 0.515140
vt 0.193066 0.515140
vt 0.193066 0.734860
vt 0.181934 0.734860
vt 0.681933 0.515140
vt 0.750000 0.515140
vt 0.750000 0.734860
vt 0.681934 0.734860
vt 0.375000 0.312500
vt 0.375000 0.312500
vt 0.375000 0.309575
vt 0.306933 0.515140
vt 0.318067 0.515140
vt 0.318067 0.734860
vt 0.306934 0.734860
vt 0.609860 0.015140
vt 0.609860 0.234860
vt 0.818066 0.515140
vt 0.818067 0.734860
vt 0.625000 0.943067
vt 0.609860 1.000000
vt 0.625000 0.306933
vt 0.625000 0.309361
vt 0.609860 0.250000
vt 0.375000 0.734860
vt 0.318067 0.750000
vt 0.625000 0.806934
vt 0.625000 0.806934
vt 0.609860 0.750000
vt 0.390140 0.500000
vt 0.375000 0.443067
vt 0.625000 0.515140
vt 0.625000 0.515140
vt 0.609860 0.500000
vt 0.375000 0.431933
vt 0.375000 0.375000
vt 0.375000 0.338284
vt 0.375000 0.875000
vt 0.375000 0.875000
vt 0.148488 0.515140
vt 0.210359 0.500000
vt 0.181934 0.500000
vt 0.148488 0.734860
vt 0.181934 0.750000
vt 0.210359 0.750000
vt 0.375000 0.375000
vt 0.375000 0.318066
vt 0.213284 0.750000
vt 0.193066 0.750000
vt 0.375000 0.000000
vt 0.609860 0.000000
vt 0.625000 0.015140
vt 0.625000 0.234860
vt 0.625000 0.375000
vt 0.625000 0.443066
vt 0.250000 0.750000
vt 0.625000 0.875000
vt 0.250000 0.500000
vt 0.318066 0.500000
vt 0.125000 0.734860
vt 0.125000 0.515140
vt 0.213284 0.500000
vt 0.375000 0.875000
vt 0.375000 0.000000
vn -1.0000 0.0000 0.0000
vn 0.0000 0.5076 0.8616
vn 1.0000 0.0000 0.0000
vn 0.0000 0.5085 -0.8611
vn 0.0000 -1.0000 0.0000
vn 0.0000 -0.5083 -0.8612
vn 0.0000 -0.5120 0.8590
vn 0.9405 0.1685 -0.2951
vn 0.9417 0.1662 0.2925
vn 0.9468 -0.3217 -0.0007
vn 0.7249 -0.3415 -0.5982
vn 0.7178 -0.3455 0.6045
vn 0.7768 0.6298 0.0003
vn 0.7560 0.3233 0.5691
vn 0.7541 0.3256 -0.5703
vn 0.7400 -0.6726 -0.0015
vn -0.7383 -0.3344 -0.5858
vn -0.7324 -0.3378 0.5912
vn -0.7665 0.6422 0.0003
vn -0.6655 -0.7464 -0.0000
vn -0.7197 0.3524 0.5982
vn 0.0000 -0.4957 -0.8685
vn 0.6376 -0.7704 -0.0000
vn 0.7262 0.3489 0.5923
vn 0.0000 -0.4962 0.8682
vn 0.0000 1.0000 0.0005
vn 0.7320 -0.3488 0.5852
vn 0.6384 0.7697 -0.0001
vn 0.7071 0.7071 0.0000
vn 0.7071 -0.3594 -0.6090
vn 0.0000 0.4958 -0.8684
vn 0.0000 0.4940 0.8695
vn 0.7253 -0.3500 -0.5929
vn 0.7071 -0.3620 0.6074
vn 0.0000 -1.0000 -0.0022
vn -0.7252 0.3501 -0.5929
vn 0.7321 0.3464 -0.5865
vn 0.0000 1.0000 0.0000
vn -0.9109 0.4125 0.0000
vn 0.0000 0.0000 1.0000
vn 0.9109 -0.4125 0.0000
vn 0.0000 0.0000 -1.0000
vn -0.0003 0.0000 -1.0000
vn -0.5691 0.5692 0.5934
vn -0.5691 0.5692 -0.5934
vn 0.5773 -0.5774 0.5774
vn 0.5773 0.5774 0.5774
vn 0.5773 -0.5774 -0.5774
vn 0.5773 0.5774 -0.5774
vn 0.2710 -0.4202 -0.8660
vn 0.2710 -0.4202 0.8660
vn -0.6058 -0.3907 -0.6931
vn -0.6058 -0.3907 0.6931
vn 0.4548 -0.7053 -0.5438
vn 0.4548 -0.7053 0.5438
vn -0.6919 -0.0000 0.7220
vn -0.7071 0.7071 0.0000
vn -0.6919 -0.0000 -0.7220
vn 0.0000 0.7071 -0.7071
vn 0.7071 0.0000 -0.7071
vn 0.7071 -0.7071 0.0000
vn 0.7071 0.0000 0.7071
vn 0.0000 -0.7071 0.7071
vn 0.0000 0.7071 0.7071
vn 0.0000 -0.7071 -0.7071
vn 0.5420 -0.8404 0.0000
vn -0.8404 -0.5420 0.0000
vn 0.6441 -0.2917 0.7071
vn 0.6441 -0.2917 -0.7071
vn -0.6597 0.2987 -0.6896
vn -0.6597 0.2987 0.6896
usemtl A
s off
f 429/805/190 431/806/190 430/807/190
f 445/808/191 449/809/191 465/810/191 463/811/191
f 434/812/192 439/813/192 447/814/192 444/815/192
f 460/816/193 466/817/193 448/818/193 441/819/193
f 461/820/194 443/821/194 446/822/194 462/823/194
f 440/824/195 433/825/195 455/826/195 456/827/195
f 435/828/196 438/829/196 458/830/196 452/831/196
f 429/805/190 430/807/190 459/832/190 464/833/190
f 437/834/192 434/812/192 444/815/192 442/835/192
f 439/813/192 437/834/192 442/835/192 447/814/192
f 430/807/190 431/806/190 467/836/190 459/832/190
f 431/837/190 429/805/190 464/833/190 467/838/190
f 432/839/197 433/840/197 434/841/197
f 435/842/198 436/843/198 437/844/198
f 438/829/199 439/845/199 440/846/199
f 441/819/200 442/847/200 443/848/200
f 444/849/201 445/850/201 446/851/201
f 447/852/202 448/853/202 449/854/202
f 450/855/203 451/856/203 452/857/203
f 453/858/204 454/859/204 455/860/204
f 456/827/205 457/861/205 458/862/205
f 459/832/206 460/863/206 461/864/206
f 462/865/207 463/866/207 464/833/207
f 465/867/208 466/868/208 467/838/208
f 461/864/209 462/865/209 464/833/209 459/832/209
f 463/869/210 465/867/210 467/838/210 464/833/210
f 443/848/211 461/870/211 460/816/211 441/819/211
f 446/822/212 443/821/212 442/871/212 444/872/212
f 449/809/213 445/808/213 444/849/213 447/873/213
f 462/874/214 446/851/214 445/808/214 463/811/214
f 448/818/215 466/817/215 465/875/215 449/854/215
f 438/829/216 435/828/216 437/844/216 439/845/216
f 434/841/217 437/844/217 436/843/217 432/839/217
f 453/858/218 451/856/218 450/855/218 454/859/218
f 456/827/219 455/826/219 454/876/219 457/861/219
f 432/839/220 453/858/220 455/826/220 433/825/220
f 435/828/221 452/831/221 451/856/221 436/843/221
f 439/877/222 434/841/222 433/825/222 440/824/222
f 457/878/223 450/879/223 452/831/223 458/830/223
f 458/862/224 438/880/224 440/824/224 456/827/224
f 466/817/225 460/816/225 459/832/225 467/836/225
f 447/852/226 442/847/226 441/819/226 448/818/226
f 432/839/227 436/843/227 451/856/227 453/858/227
usemtl Photo
f 450/881/192 457/882/192 454/883/192
usemtl Back
f 468/884/228 474/885/228 500/886/228 503/887/228
f 495/888/229 498/889/229 470/890/229 469/891/229
f 491/892/230 496/893/230 511/894/230 507/895/230
f 480/896/229 482/897/229 498/889/229 495/888/229
f 495/898/229 469/891/229 505/899/229 509/900/229
f 485/901/192 488/902/192 483/903/192 479/904/192
f 473/905/231 476/906/231 493/907/231 492/908/231
f 492/908/231 493/907/231 489/909/231 484/910/231
f 502/911/194 508/912/194 510/913/194 504/914/194
f 487/915/227 494/916/227 499/917/227 481/918/227
f 473/905/232 492/919/232 506/920/232 501/921/232
f 490/922/194 486/923/194 478/924/194 497/925/194
f 468/884/190 472/926/190 477/927/190 474/885/190
f 494/916/227 475/928/227 471/929/227 499/917/227
f 470/890/233 471/930/233 472/931/233
f 475/932/234 476/933/234 477/934/234
f 478/924/235 479/935/235 480/936/235
f 481/937/236 482/938/236 483/939/236
f 484/910/237 485/940/237 486/941/237
f 487/942/238 488/943/238 489/944/238
f 490/945/239 491/946/239 492/947/239
f 495/898/240 496/948/240 497/949/240
f 500/950/241 501/951/241 502/952/241
f 503/953/242 504/954/242 505/955/242
f 506/920/243 507/956/243 508/957/243
f 509/958/244 510/959/244 511/894/244
f 469/960/245 470/961/245 472/926/245 468/884/245
f 471/962/246 475/963/246 477/927/246 472/926/246
f 476/906/247 473/905/247 474/885/247 477/927/247
f 494/964/248 487/965/248 489/909/248 493/907/248
f 488/902/249 485/901/249 484/910/249 489/909/249
f 478/924/250 486/923/250 485/901/250 479/904/250
f 487/915/218 481/918/218 483/903/218 488/902/218
f 482/897/251 480/896/251 479/904/251 483/903/251
f 497/925/252 478/924/252 480/936/252 495/966/252
f 499/967/253 471/930/253 470/890/253 498/889/253
f 486/923/254 490/922/254 492/968/254 484/969/254
f 475/932/248 494/964/248 493/907/248 476/906/248
f 481/937/253 499/967/253 498/889/253 482/897/253
f 490/922/255 497/925/255 496/893/255 491/892/255
f 502/911/256 504/914/256 503/970/256 500/971/256
f 508/912/254 502/911/254 501/951/254 506/972/254
f 504/914/252 510/913/252 509/958/252 505/955/252
f 507/895/255 511/894/255 510/913/255 508/912/255
f 495/898/257 509/900/257 511/973/257 496/948/257
f 506/920/258 492/919/258 491/946/258 507/956/258
f 500/886/259 474/885/259 473/905/259 501/921/259
f 505/974/260 469/960/260 468/884/260 503/887/260
